<?xml version="1.0" standalone="no"?>
<!DOCTYPE svg PUBLIC "-//W3C//DTD SVG 20010904//EN"
 "http://www.w3.org/TR/2001/REC-SVG-20010904/DTD/svg10.dtd">
<svg version="1.0" xmlns="http://www.w3.org/2000/svg"
 width="360.000000pt" height="360.000000pt" viewBox="0 0 360.000000 360.000000"
 preserveAspectRatio="xMidYMid meet">

<g transform="translate(0.000000,360.000000) scale(0.100000,-0.100000)"
fill="#000000" stroke="none">
<path d="M1645 2540 l-150 -150 -212 0 -213 0 0 -213 0 -212 -150 -150 c-82
-82 -150 -154 -150 -160 0 -5 68 -77 150 -160 l150 -150 0 -159 0 -160 28 26
c35 34 99 65 165 82 l52 13 3 348 c2 307 0 350 -14 366 -12 13 -13 22 -5 38
17 30 13 108 -6 144 -60 112 -57 142 20 225 l63 67 59 -63 c68 -72 80 -101 60
-148 -7 -18 -11 -35 -7 -38 3 -3 -4 -17 -17 -29 -28 -31 -40 -117 -20 -153 10
-20 11 -29 1 -44 -9 -15 -12 -113 -12 -365 l0 -345 25 0 c25 0 25 2 19 49 -14
108 49 220 195 345 125 106 180 193 153 243 -6 11 -7 25 -2 33 5 8 3 22 -6 35
-16 24 -11 50 12 59 8 3 14 19 14 37 0 23 -10 41 -40 70 -39 38 -46 59 -40
114 4 36 30 74 60 90 42 22 44 19 10 -12 -79 -71 -23 -213 84 -213 16 0 27 -3
23 -6 -3 -4 -24 -6 -47 -6 -39 1 -40 0 -40 -31 0 -21 7 -36 20 -45 23 -14 26
-44 5 -62 -11 -9 -12 -16 -2 -31 9 -14 9 -21 -1 -31 -36 -36 27 -139 152 -247
95 -81 132 -124 165 -189 43 -85 37 -202 -15 -278 -13 -19 -24 -38 -24 -41 0
-11 143 8 204 28 33 10 84 31 111 47 l50 27 5 107 5 107 148 149 c81 82 147
153 147 158 0 5 -67 77 -150 159 l-150 150 0 212 0 213 -213 0 -212 0 -150
150 c-82 83 -152 150 -155 150 -3 0 -73 -67 -155 -150z"/>
<path d="M1327 2023 c-4 -3 -7 -28 -7 -55 0 -43 2 -48 23 -48 21 0 22 4 19 55
-4 51 -16 68 -35 48z"/>
<path d="M1390 1976 c0 -50 2 -56 21 -56 18 0 20 5 17 52 -2 41 -7 54 -20 56
-15 3 -18 -5 -18 -52z"/>
<path d="M2048 1497 c62 -72 85 -133 90 -232 4 -87 2 -93 -31 -158 -26 -51
-31 -70 -21 -74 41 -15 84 33 110 125 34 116 -17 238 -141 343 l-40 34 33 -38z"/>
<path d="M1260 1103 c-70 -20 -143 -58 -174 -92 l-19 -21 45 20 c61 27 178 42
258 34 36 -3 171 -33 300 -66 211 -54 249 -60 367 -65 152 -7 236 8 337 59 55
28 156 111 156 129 0 4 -21 -5 -47 -21 -97 -59 -163 -74 -323 -75 -102 0 -167
5 -220 17 -41 9 -145 33 -230 53 -195 45 -350 55 -450 28z"/>
</g>
</svg>
